:SAMPLES-PER-SECOND 30
:FULLY-SPECIFIED
:DEGREES
244
root  -0.142022 31.8548 -28.5254 -168.243 37.382 -164.937
RightUpLeg  -34.1005 -16.9099 -18.1712
RightLeg  59.5632 7.91007 11.4023
RightFoot  30.1152 -1.7732 7.0452
RightToes  -44.9496 -0.259181 -0.341341
Spine  3.10515 -0.912943 -0.672648
Spine1  5.98752 -1.92865 -0.666839
HEad  -25.6749 -6.17491 -0.849071
LeftShoulder1  -1.94126e-019 -3.10601e-018 -2.51263e-017
LeftArm  2.97942 -43.5853 -58.7556
LeftForeArm  83.2245 -79.2334 -54.6815
LeftHand  -1.49482 -2.6879 21.5198
RightShoulder  -4.96962e-017 0 -2.36833e-017
RightArm  -27.4445 -25.0452 52.6987
RightForeArm  66.005 74.0537 31.624
RightHand  -1.03898 -0.453939 -24.2406
LeftUpLeg  -34.9885 10.1456 15.082
LeftLeg  55.2845 2.59445 3.25813
LeftFoot  -6.96123 -0.0370862 -0.448216
LeftToes  -19.1053 1.9075e-006 4.29692e-008
245
root  -0.538803 32.7649 -29.1565 -166.788 40.176 -162.563
RightUpLeg  -41.5908 -17.0116 -13.9541
RightLeg  55.278 4.16934 5.17393
RightFoot  29.3141 -0.700732 3.18139
RightToes  -42.3299 -0.237358 -0.327902
Spine  3.51004 -1.86628 -0.472631
Spine1  6.79056 -4.02194 -0.166877
HEad  -22.7936 -4.48958 -1.43541
LeftShoulder1  -1.94126e-019 -3.10601e-018 -2.51263e-017
LeftArm  2.49402 -48.3333 -62.4441
LeftForeArm  71.5333 -77.0175 -41.9855
LeftHand  -1.55798 -3.37275 20.715
RightShoulder  -4.96962e-017 0 -2.36833e-017
RightArm  -31.6852 -28.0622 53.499
RightForeArm  53.0782 66.7237 20.4631
RightHand  -1.11212 -0.0336661 -23.9364
LeftUpLeg  -30.8214 12.1692 15.4426
LeftLeg  50.5121 3.83107 4.06484
LeftFoot  -5.70647 -0.0347241 -0.535185
LeftToes  -15.4028 1.9075e-006 4.29692e-008
246
root  -0.922575 33.9722 -29.6376 -164.057 42.6573 -159.411
RightUpLeg  -47.4118 -13.724 -9.63795
RightLeg  47.7683 6.98179 6.6758
RightFoot  33.7218 -1.44497 5.25139
RightToes  -42.0035 -0.234682 -0.326158
Spine  3.82465 -2.78459 0.278041
Spine1  7.35851 -6.02002 1.36674
HEad  -20.1732 -2.12639 -2.64119
LeftShoulder1  -1.94126e-019 -3.10601e-018 -2.51263e-017
LeftArm  3.33766 -48.9011 -66.7223
LeftForeArm  68.8334 -75.7561 -36.8508
LeftHand  -1.61013 -3.19156 21.8187
RightShoulder  -4.96962e-017 0 -2.36833e-017
RightArm  -35.3433 -30.4015 53.422
RightForeArm  44.5213 61.8797 16.7147
RightHand  -0.845113 -1.73245 -26.4881
LeftUpLeg  -26.6329 13.8276 16.4569
LeftLeg  43.7074 5.20144 4.34673
LeftFoot  -1.41569 -0.00416865 -0.175878
LeftToes  -15.5635 1.9075e-006 4.29692e-008
247
root  -1.21775 35.3249 -30.0524 -162.288 42.7459 -156.614
RightUpLeg  -49.6049 -9.80395 -7.07217
RightLeg  38.7738 10.6608 7.3878
RightFoot  35.7566 -2.25708 7.45732
RightToes  -42.9437 -0.242898 -0.323915
Spine  4.4789 -4.47125 1.10214
Spine1  8.48358 -9.66069 3.07869
HEad  -18.0057 0.0544105 -2.63296
LeftShoulder1  -1.94126e-019 -3.10601e-018 -2.51263e-017
LeftArm  4.50735 -48.0959 -69.131
LeftForeArm  61.4489 -72.9763 -29.7938
LeftHand  -1.61402 -2.6964 23.1536
RightShoulder  -4.96962e-017 0 -2.36833e-017
RightArm  -38.6374 -32.0663 53.7559
RightForeArm  42.7575 59.392 15.0164
RightHand  -0.536687 -3.31505 -29.5096
LeftUpLeg  -23.5688 13.3581 18.2279
LeftLeg  38.1695 5.09351 3.48402
LeftFoot  7.66791 -0.0381848 0.731314
LeftToes  -25.3633 1.9075e-006 4.29692e-008
248
root  -1.53901 36.4995 -30.4529 -162.209 41.3978 -156.553
RightUpLeg  -51.4631 -7.19551 -7.56458
RightLeg  31.9265 10.4051 5.53231
RightFoot  35.3208 -1.96948 6.65544
RightToes  -43.8326 -0.2498 -0.321132
Spine  4.90143 -6.58337 1.22026
Spine1  9.27583 -14.0237 3.32096
HEad  -16.0257 1.23707 -1.53087
LeftShoulder1  -1.94126e-019 -3.10601e-018 -2.51263e-017
LeftArm  5.26637 -47.5583 -69.4343
LeftForeArm  51.5115 -68.4964 -23.0254
LeftHand  -1.4907 -2.60892 21.6661
RightShoulder  -4.96962e-017 0 -2.36833e-017
RightArm  -42.4182 -33.7412 55.224
RightForeArm  40.4826 57.7949 14.1902
RightHand  -0.188808 -4.68894 -30.7298
LeftUpLeg  -22.5242 14.1138 18.2465
LeftLeg  33.9373 1.90003 1.10267
LeftFoot  17.536 -0.0525705 0.502355
LeftToes  -33.3062 1.9075e-006 4.29692e-008
